<svg width="14" height="15" viewBox="0 0 14 15" fill="none" xmlns="http://www.w3.org/2000/svg">
<path fill-rule="evenodd" clip-rule="evenodd" d="M6.99967 8.50008C7.70692 8.50008 8.3852 8.21913 8.88529 7.71903C9.38539 7.21894 9.66634 6.54066 9.66634 5.83341C9.66634 5.12617 9.38539 4.44789 8.88529 3.9478C8.3852 3.4477 7.70692 3.16675 6.99967 3.16675C6.29243 3.16675 5.61415 3.4477 5.11406 3.9478C4.61396 4.44789 4.33301 5.12617 4.33301 5.83341C4.33301 6.54066 4.61396 7.21894 5.11406 7.71903C5.61415 8.21913 6.29243 8.50008 6.99967 8.50008ZM6.99967 7.83341C7.26232 7.83341 7.52239 7.78168 7.76504 7.68117C8.00769 7.58066 8.22817 7.43335 8.41389 7.24763C8.59961 7.06191 8.74692 6.84143 8.84743 6.59878C8.94794 6.35613 8.99967 6.09606 8.99967 5.83341C8.99967 5.57077 8.94794 5.3107 8.84743 5.06805C8.74692 4.8254 8.59961 4.60492 8.41389 4.4192C8.22817 4.23348 8.00769 4.08617 7.76504 3.98566C7.52239 3.88515 7.26232 3.83341 6.99967 3.83341C6.46924 3.83341 5.96053 4.04413 5.58546 4.4192C5.21039 4.79427 4.99967 5.30298 4.99967 5.83341C4.99967 6.36385 5.21039 6.87256 5.58546 7.24763C5.96053 7.6227 6.46924 7.83341 6.99967 7.83341Z" fill="white"/>
<path fill-rule="evenodd" clip-rule="evenodd" d="M13.6663 7.50004C13.6663 11.182 10.6817 14.1667 6.99967 14.1667C3.31767 14.1667 0.333008 11.182 0.333008 7.50004C0.333008 3.81804 3.31767 0.833374 6.99967 0.833374C10.6817 0.833374 13.6663 3.81804 13.6663 7.50004ZM10.2097 12.57C9.25 13.1792 8.13638 13.5019 6.99967 13.5C5.83583 13.5018 4.69683 13.1635 3.72267 12.5267C3.64267 12.4267 3.56134 12.3234 3.47934 12.2167C3.38406 12.0917 3.33263 11.9389 3.33301 11.7817C3.33301 11.4227 3.59101 11.1217 3.93601 11.0714C6.21767 10.738 7.78867 10.7667 10.0733 11.083C10.2388 11.107 10.39 11.1901 10.499 11.3168C10.608 11.4436 10.6674 11.6055 10.6663 11.7727C10.6663 11.9327 10.6113 12.088 10.512 12.2094C10.4097 12.334 10.3087 12.4544 10.2097 12.57ZM11.328 11.6554C11.2747 11.0314 10.801 10.5107 10.1647 10.4227C7.82601 10.099 6.19134 10.068 3.83967 10.4117C3.19967 10.505 2.72801 11.0304 2.67201 11.656C1.59712 10.5397 0.997556 9.04973 0.999674 7.50004C0.999674 4.18637 3.68601 1.50004 6.99967 1.50004C10.3133 1.50004 12.9997 4.18637 12.9997 7.50004C13.0018 9.04941 12.4025 10.5391 11.328 11.6554Z" fill="white"/>
</svg>
